<?xml version="1.0" encoding="iso-8859-1"?>
<!-- Uploaded to: SVG Repo, www.svgrepo.com, Generator: SVG Repo Mixer Tools -->
<svg height="800px" width="800px" version="1.1" id="Layer_1" xmlns="http://www.w3.org/2000/svg" xmlns:xlink="http://www.w3.org/1999/xlink" 
	 viewBox="0 0 512 512" xml:space="preserve">
<path style="fill:#FF9900;" d="M291.977,27.934C287.774,11.498,272.965,0,256,0s-31.774,11.498-35.977,27.934L116.291,433.547
	h279.419L291.977,27.934z"/>
<path style="fill:#FF4B00;" d="M395.708,433.547L291.977,27.934C287.774,11.498,272.965,0,256,0v433.547H395.708z"/>
<path style="fill:#533F29;" d="M397.611,433.547H256V512h141.611c21.664,0,39.226-17.562,39.226-39.226l0,0
	C436.837,451.109,419.275,433.547,397.611,433.547z"/>
<path style="fill:#A9825A;" d="M256,433.547H114.389c-21.664,0-39.226,17.562-39.226,39.226l0,0
	c0,21.664,17.562,39.226,39.226,39.226H256L256,433.547L256,433.547z"/>
<polygon style="fill:#E7E7E9;" points="256,216.774 340.271,216.774 314.108,114.471 256,114.471 "/>
<polygon style="fill:#FFFFFF;" points="256,114.471 197.892,114.471 171.729,216.774 256,216.774 "/>
<polygon style="fill:#E7E7E9;" points="256,390.598 384.725,390.598 358.561,288.295 256,288.295 "/>
<polygon style="fill:#FFFFFF;" points="256,288.295 153.438,288.295 127.275,390.598 256,390.598 "/>
</svg>